<svg version="1" xmlns="http://www.w3.org/2000/svg" width="341.333" height="341.333" viewBox="0 0 256.000000 256.000000" style="fill:#ff7400;"><path d="M125.3 14.3c-2.2 1.2-111.6 107.9-115.9 113-5.1 6.1-6.6 4.3 45.8 55.8 60.6 59.5 63.1 61.9 66 61.9 3.8-.1 6-1.9 21.4-18 8.2-8.5 34.5-35.9 58.4-60.9s44.5-46.8 45.7-48.4c3.2-4.4 2.9-7.7-.9-11.4-1.8-1.6-18.6-15.5-37.3-30.8-18.7-15.4-41.2-33.8-50-41-28.6-23.5-28-23.1-33.2-20.2zm61.4 49.5c31.2 25.8 56.9 47.6 57.1 48.5.2 1.1-7 9.4-19.5 22.4-11 11.5-37.8 39.5-59.7 62.3-21.9 22.8-40.4 41.9-41.2 42.3-.8.4-2 .4-2.8 0-.7-.4-25.5-24.4-55-53.2-38.9-38-53.6-53-53.4-54.4C12.5 129.6 126.8 17 128.7 17c.6 0 26.7 21.1 58 46.8z"/><path d="M127 40c0 .5.7 1 1.5 1s1.5-.5 1.5-1c0-.6-.7-1-1.5-1s-1.5.4-1.5 1zM162.8 96.3l-9.8.9v5.7c0 3.1-.3 13.4-.7 22.8l-.6 17.3h9.3v-17.9l4.8-.5c17.9-2.1 20.4-3.2 24.1-9.7 3.8-6.6 2-14.2-4.2-17.9-3.5-2.2-7.1-2.3-22.9-.7zm19.6 11c.9 2.3.6 3.1-1.4 5.2-2.1 1.9-3.9 2.5-10.7 3.1l-8.3.7v-5.6c0-5.5 0-5.6 3.3-6 1.7-.2 6.1-.4 9.7-.3 6.1.1 6.5.2 7.4 2.9zM126.4 99.7c-2 .4-2.1 1.1-2.7 22.6-.4 12.2-.3 22.4.1 22.8.4.3 2.3.4 4.3.2l3.6-.5.7-12c.3-6.7.6-17 .6-23 0-11.9.3-11.5-6.6-10.1zM76.3 103.7c-7.5.5-7-.7-7.8 18.3-.3 7.4-.8 16.8-1.1 20.8l-.6 7.3 8.8-.7c11.2-.9 18.1-3.4 23.2-8.5 14.5-14.4 8.4-36.4-10.4-37.3-3.2-.2-8.7-.1-12.1.1zm16.7 10c4 2.8 4.9 4.5 5 9.6 0 5.6-1.8 9.5-6 13.1-3.1 2.6-4.1 2.9-11.2 4.1l-3.8.6v-5.4c0-3 .3-9.5.6-14.5l.7-9.2h6.1c4.2 0 7 .6 8.6 1.7zM123.5 214c-.3.5-.1 1 .4 1 .6 0 1.1-.5 1.1-1 0-.6-.2-1-.4-1-.3 0-.8.4-1.1 1zM125.7 247.2c-1.1.5-3.2.8-4.7.6-3-.5-4 1-4 5.9 0 2.1.5 2.3 5.3 2.3 4.2 0 5.5-.4 6.6-2.1.8-1.4.9-2.4.3-2.8-.6-.3-1.2-1.6-1.3-2.8-.3-1.8-.7-2-2.2-1.1z"/></svg>