<?xml version="1.0" encoding="UTF-8"?>
<svg width="176.65mm" height="112mm" version="1.1" viewBox="0 0 176.65 112" xmlns="http://www.w3.org/2000/svg">
 <style>@media all and (max-width:50px) {#hideable {opacity:0;}}</style>
 <g transform="translate(-18.577 -20.907)">
  <circle cx="146.72" cy="76.907" r="47.5" fill="#ff7400" style="mix-blend-mode:normal"/>
  <circle id="hideable" cx="146.72" cy="76.907" r="44" fill="#fff" style="mix-blend-mode:normal"/>
  <rect transform="rotate(225)" x="-147.59" y="-42.123" width="80.951" height="80.951" ry="5.4226" fill="#00b3b3" style="paint-order:markers fill stroke"/>
  <rect id="hideable" transform="rotate(225)" x="-143.95" y="-38.48" width="73.592" height="73.592" ry="3.1113" fill="#fff" style="paint-order:markers fill stroke"/>
  <path id="hideable" d="m48.264 87.479c-0.07328-0.32742-0.10531-5.5364-0.07119-11.576l0.06204-10.98 3.7529-0.0733c4.5255-0.0884 6.9349 0.33619 9.0225 1.5899 4.9341 2.9633 6.6758 10 3.8896 15.715-0.96391 1.9773-2.1764 3.2746-4.1304 4.4196-1.9669 1.1524-3.8996 1.4994-8.3517 1.4994-3.9742 0-4.0426-0.01-4.1736-0.59531zm10.197-3.964c3.0697-1.3041 4.5594-4.4908 3.9291-8.4049-0.67492-4.1909-3.0932-6.1173-7.7628-6.1838l-2.4033-0.03424-0.07433 7.0115c-0.04088 3.8563-0.0049 7.295 0.0799 7.6415 0.1521 0.6213 0.18972 0.62824 2.7202 0.50082 1.4113-0.0711 2.9913-0.30991 3.5112-0.53078zm15.39-7.0162 0.06893-11.576 3.8365-0.15548v23.307h-3.9743zm12.637-0.08713v-11.663l6.2838 0.11013c7.2826 0.12764 7.7954 0.24209 9.7381 2.1738 1.5685 1.5596 2.0947 3.0284 1.9192 5.3575-0.19413 2.5762-1.4386 4.4696-3.7504 5.7061-0.96904 0.51831-1.6073 0.60019-5.5918 0.71739l-4.4979 0.13229-0.1448 9.1281h-3.9562zm12.254-1.8642c1.7499-0.90127 2.4061-2.447 1.6552-3.8991-0.75258-1.4553-1.6743-1.7366-6.0382-1.8425l-3.9026-0.09473v6.1339h3.8538c2.3358 0 4.0815-0.11725 4.4318-0.29764z" fill="#ff7400"/>
  <g id="hideable" transform="translate(1.3911 -.91182)" fill="#006363">
   <path d="m146.25 61.209c-1.104 0.42893-2.3267 0.3475-3.4414 0.0059-3.9817 7.1393-8.2938 14.107-12.415 21.18-1.1152 1.7485-1.9572 3.9218-1.3193 5.9981 0.45771 1.6899 2.4869 2.7455 4.098 1.9696 2.2099-1.07 3.7523-3.0899 5.2848-4.9396 1.0633-1.3734 2.1095-2.7718 3.0937-4.196 0.30251-0.70265-0.67796-1.3202-1.1641-0.71289-2.0372 2.7653-3.9964 5.675-6.6602 7.918-0.51075 0.33213-1.2958 1.0407-1.875 0.5293-0.28204-1.1215 0.50481-2.1689 0.91015-3.166 2.3753-4.3654 5.0151-8.5817 7.543-12.86 2.4281-4.0511 4.8528-8.1041 7.2832-12.154-0.44597 0.14258-0.89193 0.28516-1.3379 0.42773z"/>
   <path d="m148.55 68.039c-1.4607 0.21831-2.8052 1.5368-2.8789 3.041-0.11723 1.0486 0.85117 1.9315 1.8811 1.7716 1.7921-0.10814 3.3838-2.0854 2.8299-3.8575-0.24761-0.75855-1.1013-1.0436-1.832-0.95508zm-0.97656 6.373c-1.1926 0.18964-2.418 0.28568-3.5918-0.06836-1.7686 3.0897-3.6911 6.095-5.3558 9.241-0.81114 1.5926-1.5104 3.6011-0.53101 5.2804 0.8694 1.6896 3.2073 2.2555 4.7911 1.2345 2.5526-1.5338 4.3464-4.0027 6.1234-6.3312 0.62415-0.90731 1.3603-1.7433 1.8961-2.7078 0.0964-0.79932-1.0539-1.0819-1.375-0.37305-1.9401 2.7028-3.8843 5.4813-6.4462 7.6396-0.61899 0.458-1.5779 1.199-2.3116 0.58889-0.3117-1.1132 0.4276-2.1922 0.9079-3.1547 2.3128-3.8342 4.6512-7.6534 6.9769-11.48-0.36133 0.04362-0.72266 0.08724-1.084 0.13086z"/>
   <path d="m164.92 61.514c-1.1296 0.20758-2.307 0.23698-3.4062-0.13867-4.0466 6.5276-8.1577 13.017-12.166 19.567-1.0948 2.0016-2.3905 4.2563-1.8261 6.6224 0.30858 1.7225 1.8818 3.1827 3.682 3.0497 3.2164-0.12212 5.9761-2.1005 8.359-4.0868 2.2523-1.9496 4.3089-4.6503 4.1538-7.7803-0.01-2.0799-1.4286-4.4078-3.6678-4.5433-0.99244-0.09749-1.9555 0.33405-2.7244 0.93104 2.9069-4.5905 5.8136-9.1811 8.7207-13.771-0.375 0.05013-0.75 0.10026-1.125 0.15039zm-5.0684 14.15c1.0015 0.08764 0.87591 1.3546 0.7585 2.0767-0.61873 2.8262-2.5199 5.1393-4.3112 7.3276-1.4104 1.5589-2.8695 3.2994-4.923 3.9916-0.55963 0.19691-1.5343 0.14127-1.4861-0.66556 0.0661-1.4629 1.0394-2.6937 1.7467-3.9202 1.8415-2.7192 3.7554-5.4392 6.1488-7.7066 0.59495-0.4831 1.248-1.1267 2.0664-1.1035z"/>
  </g>
 </g>
</svg>
